<svg width="24" height="24" viewBox="0 0 24 24" fill="none" xmlns="http://www.w3.org/2000/svg">
<path fill-rule="evenodd" clip-rule="evenodd" d="M12.0199 3C9.76143 3 7.70393 3.746 6.48643 4.3555C6.37643 4.4105 6.27393 4.4645 6.17843 4.5165C5.98943 4.6195 5.82843 4.7155 5.70043 4.8L7.08543 6.839L7.73743 7.0985C10.2854 8.384 13.7024 8.384 16.2509 7.0985L16.9909 6.7145L18.3004 4.8C18.0292 4.62303 17.7471 4.46322 17.4559 4.3215C16.2444 3.7185 14.2359 3 12.0204 3H12.0199ZM8.79893 5.308C8.30849 5.21623 7.82409 5.09467 7.34843 4.944C8.48893 4.4375 10.1884 3.9 12.0199 3.9C13.2884 3.9 14.4879 4.158 15.4799 4.485C14.3174 4.6485 13.0769 4.926 11.8949 5.2675C10.9649 5.5365 9.87793 5.5075 8.79893 5.308ZM16.7789 7.84L16.6559 7.902C13.8529 9.316 10.1349 9.316 7.33193 7.902L7.21543 7.843C3.00443 12.4635 -0.210571 20.9985 12.0199 20.9985C24.2504 20.9985 20.9569 12.304 16.7789 7.84ZM11.5004 12C11.2352 12 10.9809 12.1054 10.7933 12.2929C10.6058 12.4804 10.5004 12.7348 10.5004 13C10.5004 13.2652 10.6058 13.5196 10.7933 13.7071C10.9809 13.8946 11.2352 14 11.5004 14V12ZM12.5004 11V10.5H11.5004V11C10.97 11 10.4613 11.2107 10.0862 11.5858C9.71114 11.9609 9.50043 12.4696 9.50043 13C9.50043 13.5304 9.71114 14.0391 10.0862 14.4142C10.4613 14.7893 10.97 15 11.5004 15V17C11.0654 17 10.6949 16.7225 10.5569 16.3335C10.5365 16.2699 10.5034 16.211 10.4598 16.1603C10.4162 16.1097 10.3628 16.0683 10.3029 16.0386C10.243 16.0089 10.1778 15.9916 10.111 15.9875C10.0443 15.9835 9.97742 15.9929 9.91439 16.0152C9.85135 16.0375 9.79342 16.0721 9.74403 16.1172C9.69463 16.1622 9.65477 16.2167 9.6268 16.2775C9.59884 16.3382 9.58333 16.4039 9.58121 16.4707C9.57908 16.5376 9.59038 16.6041 9.61443 16.6665C9.75235 17.0565 10.0078 17.3941 10.3455 17.6329C10.6833 17.8718 11.0868 18 11.5004 18V18.5H12.5004V18C13.0309 18 13.5396 17.7893 13.9146 17.4142C14.2897 17.0391 14.5004 16.5304 14.5004 16C14.5004 15.4696 14.2897 14.9609 13.9146 14.5858C13.5396 14.2107 13.0309 14 12.5004 14V12C12.9354 12 13.3059 12.2775 13.4439 12.6665C13.4644 12.7301 13.4974 12.789 13.5411 12.8397C13.5847 12.8903 13.638 12.9317 13.6979 12.9614C13.7579 12.9911 13.8231 13.0084 13.8898 13.0125C13.9566 13.0165 14.0234 13.0071 14.0865 12.9848C14.1495 12.9625 14.2074 12.9279 14.2568 12.8828C14.3062 12.8378 14.3461 12.7833 14.3741 12.7225C14.402 12.6618 14.4175 12.5961 14.4197 12.5293C14.4218 12.4624 14.4105 12.3959 14.3864 12.3335C14.2485 11.9435 13.9931 11.6059 13.6553 11.3671C13.3176 11.1282 12.9141 11 12.5004 11ZM12.5004 15V17C12.7656 17 13.02 16.8946 13.2075 16.7071C13.3951 16.5196 13.5004 16.2652 13.5004 16C13.5004 15.7348 13.3951 15.4804 13.2075 15.2929C13.02 15.1054 12.7656 15 12.5004 15Z" fill="#404040"/>
</svg>
